<svg xmlns="http://www.w3.org/2000/svg" xmlns:xlink="http://www.w3.org/1999/xlink" version="1.1" width="940" height="788" viewBox="0 0 940 788" xml:space="preserve">
<desc>Created with Fabric.js 3.5.0</desc>
<defs>
</defs>
<rect x="0" y="0" width="100%" height="100%" fill="rgba(255,255,255,0)"/>
<g transform="matrix(0.8677 0 0 0.7799 468.9918 370.7894)" id="588965">
<g style="" vector-effect="non-scaling-stroke">
		<g transform="matrix(1 0 0 1 -288.6734 -76.2608)">
<path style="stroke: none; stroke-width: 1; stroke-dasharray: none; stroke-linecap: butt; stroke-dashoffset: 0; stroke-linejoin: miter; stroke-miterlimit: 4; is-custom-font: none; font-file-url: none; fill: rgb(6,4,61); fill-rule: nonzero; opacity: 1;" transform=" translate(63.5484, -103.9892)" d="M 0 0 C 1.23595383 1.05171226 2.44611362 2.13469401 3.625 3.25 C 4.16769531 3.74113281 4.71039063 4.23226563 5.26953125 4.73828125 C 15.15405125 14.82299406 15.85453878 29.19358218 15.875 42.4375 C 15.87733643 43.13137817 15.87967285 43.82525635 15.88208008 44.54016113 C 15.89355312 53.65132185 15.41711797 62.46708312 14.125 71.5 C 12.44797688 83.48646477 12.34524851 95.35275076 12.375 107.4375 C 12.37604736 108.35865601 12.37709473 109.27981201 12.37817383 110.22888184 C 12.40192014 120.08140397 12.65871871 129.84700267 13.39355469 139.6730957 C 13.80485657 146.02961875 13.84945154 152.38204744 13.875 158.75 C 13.895625 160.03519531 13.91625 161.32039062 13.9375 162.64453125 C 13.99513444 176.98109922 12.32564737 192.4370369 2.515625 203.6640625 C -7.55528875 213.21406692 -19.02754365 213.57522189 -32.2734375 213.3984375 C -42.85495034 213.10650069 -51.28967953 209.81651183 -58.6875 202.0625 C -69.04830498 189.62129481 -68.79137069 173.31825654 -69.32861328 157.93676758 C -69.63863572 149.42228891 -70.3319619 141.25988295 -72.2734375 132.9453125 C -72.51814285 131.89675331 -72.51814285 131.89675331 -72.76779175 130.82701111 C -74.10732074 125.5176784 -76.06220233 121.5750414 -79.375 117.25 C -81.85 117.745 -81.85 117.745 -84.375 118.25 C -90.32874688 132.8484528 -85.8722215 144.7815533 -80.1875 158.5625 C -75.26300987 170.78449607 -76.51885913 184.86407554 -80.375 197.25 C -83.44936006 204.17276112 -88.10567871 208.52617605 -94.8125 212.0625 C -103.79240162 215.05580054 -114.30209022 214.2186696 -122.9375 210.58203125 C -132.17850935 205.53205659 -137.476239 197.90638653 -140.4765625 187.9453125 C -144.12168651 172.95275896 -143.1634614 158.87040397 -141.5 143.6875 C -138.73171285 118.38792592 -138.14714446 93.74509479 -141.29370117 68.44604492 C -142.32252908 59.86830952 -142.71029184 51.38817832 -142.75 42.75 C -142.76353516 41.5751001 -142.77707031 40.4002002 -142.79101562 39.18969727 C -142.72501559 26.39210751 -140.17806522 15.0228004 -131.59375 5.21484375 C -121.96965482 -4.07398582 -109.50135297 -4.9428108 -96.8125 -5 C -95.69552734 -5.020625 -94.57855469 -5.04125 -93.42773438 -5.0625 C -83.3445283 -5.10926269 -72.98963865 -4.26080996 -65.0546875 2.5546875 C -53.71066372 14.00423708 -55.12283257 32.11671722 -54.71118164 47.13354492 C -54.34619006 68.75642948 -54.34619006 68.75642948 -44.375 87.25 C -43.055 86.92 -41.735 86.59 -40.375 86.25 C -35.19936645 72.01700774 -40.26834263 58.89393463 -45.2890625 45.4140625 C -49.54337924 33.01839142 -48.95917816 17.07329079 -43.375 5.25 C -40.32865413 0.33819515 -36.86400645 -2.73363028 -31.375 -4.75 C -20.85553042 -6.89285491 -9.00716622 -6.45341028 0 0 Z" stroke-linecap="round"/>
</g>
		<g transform="matrix(1 0 0 1 -462.1567 -75.944)">
<path style="stroke: none; stroke-width: 1; stroke-dasharray: none; stroke-linecap: butt; stroke-dashoffset: 0; stroke-linejoin: miter; stroke-miterlimit: 4; is-custom-font: none; font-file-url: none; fill: rgb(7,4,61); fill-rule: nonzero; opacity: 1;" transform=" translate(-0.4058, -109.431)" d="M 0 0 C 0.69838989 0.00432037 1.39677979 0.00864075 2.11633301 0.01309204 C 23.69314184 0.16948596 42.75505725 4.19462588 59.0625 19.375 C 65.96360486 27.61326475 70.07701804 36.0474439 73.0625 46.375 C 73.43117187 47.62023438 73.79984375 48.86546875 74.1796875 50.1484375 C 79.16934101 67.89368494 79.39071535 86.04128263 79.32324219 104.35375977 C 79.31252522 107.80437834 79.32320013 111.25447525 79.3359375 114.70507812 C 79.34786449 131.69837769 79.00963766 148.82462111 74.75 165.375 C 74.4240686 166.68259277 74.4240686 166.68259277 74.09155273 168.01660156 C 71.38685723 178.49230147 67.59227183 187.69661431 61.0625 196.375 C 60.61261719 196.98988281 60.16273438 197.60476562 59.69921875 198.23828125 C 49.83408821 210.7711654 34.41288991 216.41103454 19.0625 218.375 C 13.5543253 218.82230739 8.04286325 218.8502252 2.51953125 218.82104492 C 0.06425696 218.81250611 -2.38870156 218.84147777 -4.84375 218.87304688 C -23.59357543 218.95734191 -41.87227269 214.34641024 -55.6953125 200.86328125 C -81.71754415 171.98495101 -79.28333302 123.80806387 -77.52734375 87.64511108 C -76.29614985 64.0347594 -73.93794555 39.03696781 -57.9375 20.375 C -57.37160156 19.70984375 -56.80570313 19.0446875 -56.22265625 18.359375 C -41.90815332 2.86603065 -19.99553058 -0.23570898 0 0 Z M -18.0625 96.4375 C -20.88972693 100.86682218 -21.15130466 103.32661841 -21.25 108.625 C -21.28738281 109.92953125 -21.32476562 111.2340625 -21.36328125 112.578125 C -20.7659465 117.90481652 -18.41462422 120.81098612 -14.8125 124.625 C -7.22894294 129.24107821 1.5582447 128.82636092 10.0625 127.375 C 15.11269775 126.06031656 18.26067871 123.83715983 21.0625 119.375 C 23.9168801 113.23808279 24.09967388 106.42890086 21.9375 100.0625 C 18.5686823 95.23386129 15.43098356 92.48026728 9.75 91.0625 C 0.83055194 89.51388131 -11.66879017 88.87961757 -18.0625 96.4375 Z" stroke-linecap="round"/>
</g>
		<g transform="matrix(1 0 0 1 309.1039 -71.515)">
<path style="stroke: none; stroke-width: 1; stroke-dasharray: none; stroke-linecap: butt; stroke-dashoffset: 0; stroke-linejoin: miter; stroke-miterlimit: 4; is-custom-font: none; font-file-url: none; fill: rgb(7,4,61); fill-rule: nonzero; opacity: 1;" transform=" translate(-12.4506, -109.8762)" d="M 0 0 C 3.20974447 0.01605359 6.41822368 0.00008578 9.62792969 -0.01904297 C 30.11504773 -0.04044258 53.11269196 1.14619587 69.84667969 14.39111328 C 70.67683594 15.00728516 71.50699219 15.62345703 72.36230469 16.25830078 C 81.85318168 24.40612914 84.73200853 36.44444488 85.84667969 48.39111328 C 86.71318597 64.28153486 86.34977265 81.58052304 75.79980469 94.32470703 C 72.20615591 98.12678744 68.19780232 101.16129529 63.56152344 103.58642578 C 61.41280557 104.73089279 59.60845578 105.70733249 57.84667969 107.39111328 C 57.14153619 110.33839273 57.43111274 112.32630704 57.84667969 115.39111328 C 58.96042969 115.80361328 60.07417969 116.21611328 61.22167969 116.64111328 C 62.31416016 117.05683594 62.31416016 117.05683594 63.42871094 117.48095703 C 65.06474285 118.09678165 66.70840321 118.69264951 68.35839844 119.27001953 C 76.24005195 122.15472886 81.54371827 125.55085769 85.65917969 133.01611328 C 92.72254746 148.60663886 91.44653821 168.8447043 85.62792969 184.71533203 C 79.28089949 198.48486144 68.82941928 207.5433378 54.77709961 212.85644531 C 37.43431394 218.92368306 19.7963239 219.66350876 1.59667969 219.76611328 C 0.80201294 219.77414978 0.00734619 219.78218628 -0.81140137 219.79046631 C -18.50553016 219.92612525 -39.66949436 219.39936861 -53.15332031 206.39111328 C -61.46881852 196.89007215 -64.27298442 185.55515374 -64.28613281 173.09423828 C -64.28742187 171.88638672 -64.28871094 170.67853516 -64.29003906 169.43408203 C -64.28617188 168.18240234 -64.28230469 166.93072266 -64.27832031 165.64111328 C -64.2821875 164.43583984 -64.28605469 163.23056641 -64.29003906 161.98876953 C -64.28292867 155.24100495 -64.07700324 148.55654247 -63.65332031 141.82470703 C -63.06122947 132.23500094 -63.0014987 122.66405722 -63.02294922 113.05834961 C -63.02833481 110.1959102 -63.02295113 107.33362627 -63.01660156 104.47119141 C -63.01342145 95.25747575 -63.21632829 86.14833494 -63.91748047 76.9597168 C -66.99040279 30.46188496 -66.99040279 30.46188496 -53.59472656 13.40673828 C -40.65693759 -1.1133702 -17.77809221 -0.10553205 0 0 Z M -6.71582031 69.39111328 C -9.3654404 73.07754124 -9.37562643 75.67018411 -9.46582031 80.20361328 C -9.50320313 81.42693359 -9.54058594 82.65025391 -9.57910156 83.91064453 C -9.07955993 87.99405363 -8.07612043 89.55137675 -5.15332031 92.39111328 C 2.41419603 95.36406613 11.22587623 95.00915759 18.84667969 92.14111328 C 22.69970084 89.89351761 24.86409031 87.35629204 26.84667969 83.39111328 C 27.34212573 78.80214584 27.41777644 74.73319065 25.59667969 70.45361328 C 17.38340345 64.2936561 1.69507974 62.82650836 -6.71582031 69.39111328 Z M -8.87988281 134.31298828 C -11.66137863 138.85211643 -11.49857504 143.23954934 -11.15332031 148.39111328 C -10.05428734 152.88715726 -8.06946579 154.95440054 -4.15332031 157.39111328 C 3.53380702 159.23602384 12.82723933 159.67029807 20.19042969 156.42626953 C 23.68048707 154.24498367 25.27385748 151.34825582 26.40917969 147.46923828 C 27.35477065 142.38668683 26.43893313 138.94990382 23.84667969 134.39111328 C 19.74972858 129.99068432 13.23067863 129.30285749 7.47167969 129.07861328 C 1.86130573 129.22471677 -4.98291049 129.97518198 -8.87988281 134.31298828 Z" stroke-linecap="round"/>
</g>
		<g transform="matrix(1 0 0 1 39.5528 -77.5288)">
<path style="stroke: none; stroke-width: 1; stroke-dasharray: none; stroke-linecap: butt; stroke-dashoffset: 0; stroke-linejoin: miter; stroke-miterlimit: 4; is-custom-font: none; font-file-url: none; fill: rgb(6,4,61); fill-rule: nonzero; opacity: 1;" transform=" translate(-15.9512, -102.2564)" d="M 0 0 C 9.31444884 8.75864839 11.55936509 20.65457071 11.96875 33.01171875 C 12.01861841 45.8722264 9.7639148 58.94658403 7.2734375 71.53515625 C 4.27391573 86.73123687 4.27391573 86.73123687 6.8984375 101.78515625 C 9.15203722 104.69111379 9.93844996 104.79354596 13.7734375 105.59765625 C 17.33515969 105.91134921 19.7621084 105.66695371 22.8984375 103.78515625 C 27.37392099 98.90092759 27.00054547 93.12719596 26.8984375 86.78515625 C 26.40198373 81.78412812 25.43092412 76.85901935 24.46533203 71.93106079 C 23.71377156 68.068777 23.02713797 64.19515503 22.34375 60.3203125 C 22.2109967 59.56886459 22.07824341 58.81741669 21.94146729 58.04319763 C 18.85571952 40.24392689 17.51599715 20.49069535 27.8984375 4.78515625 C 33.15869459 -2.30140036 39.92405996 -5.14890571 48.3984375 -6.96484375 C 49.5534375 -7.04734375 50.7084375 -7.12984375 51.8984375 -7.21484375 C 52.61128906 -7.26640625 53.32414063 -7.31796875 54.05859375 -7.37109375 C 64.37156463 -7.77355115 75.88076419 -6.13592945 83.8984375 0.78515625 C 93.54104781 9.70554676 95.39833539 21.04383262 95.99389648 33.83544922 C 96.09794606 39.94105131 95.37019107 45.8643878 94.5859375 51.91015625 C 93.27091343 62.565765 92.35803112 73.21391732 91.58374023 83.9197998 C 85.12395559 172.91418474 85.12395559 172.91418474 56.1484375 200.53515625 C 44.41842534 210.26138514 30.00809805 212.03380245 15.3359375 212.16015625 C 14.29550293 212.17409424 13.25506836 212.18803223 12.18310547 212.20239258 C -3.00394507 212.11032811 -16.98341179 207.33831927 -28.1015625 196.78515625 C -50.7508278 171.90104883 -55.66367619 129.87944057 -58.45753479 97.91082764 C -59.04789909 91.21745418 -59.71897952 84.53290407 -60.39453125 77.84765625 C -60.62639577 75.5407809 -60.85816595 73.23389606 -61.08984375 70.92700195 C -61.43736932 67.46692319 -61.78558446 64.00692523 -62.13671875 60.54721069 C -62.46655987 57.28709732 -62.79055401 54.02644929 -63.11328125 50.765625 C -63.21311813 49.791698 -63.31295502 48.817771 -63.41581726 47.81433105 C -64.81789655 33.49613924 -64.80560676 17.00689715 -56.1015625 4.78515625 C -43.07165863 -9.92241764 -15.55010322 -11.7637398 0 0 Z" stroke-linecap="round"/>
</g>
		<g transform="matrix(1 0 0 1 471.254 -77.6742)">
<path style="stroke: none; stroke-width: 1; stroke-dasharray: none; stroke-linecap: butt; stroke-dashoffset: 0; stroke-linejoin: miter; stroke-miterlimit: 4; is-custom-font: none; font-file-url: none; fill: rgb(7,4,61); fill-rule: nonzero; opacity: 1;" transform=" translate(58.6288, -97.9508)" d="M 0 0 C 6.89308684 6.92638678 7.86432184 16.37754671 7.890625 25.74804688 C 7.88289063 26.67681641 7.87515625 27.60558594 7.8671875 28.5625 C 7.87492187 29.48740234 7.88265625 30.41230469 7.890625 31.36523438 C 7.86484025 40.5639449 6.8796922 49.82135434 1.6171875 57.625 C -3.09160005 62.1040906 -6.87625008 62.90182099 -13.15234375 62.85546875 C -20.80833938 62.30927317 -28.47910389 60.73372926 -35.95703125 59.04296875 C -39.11624065 58.49862832 -42.17816869 58.41643936 -45.3828125 58.375 C -46.5790625 58.34921875 -47.7753125 58.3234375 -49.0078125 58.296875 C -52.67835516 58.65373331 -54.47533293 59.4028549 -57.3828125 61.625 C -59.59758742 64.94716238 -59.67948957 66.17533323 -59.6953125 70.0625 C -59.72044922 71.48369141 -59.72044922 71.48369141 -59.74609375 72.93359375 C -59.32195297 76.07588404 -58.62486109 77.40319564 -56.3828125 79.625 C -47.77287536 83.28376821 -34.26914202 77.29352706 -25.89477539 74.65795898 C -19.3854163 72.67360001 -13.76114765 71.4555763 -7.1328125 73.75 C -2.17306706 77.13164462 -0.33787645 80.93834075 0.8671875 86.6875 C 2.70831754 98.94511352 2.84402104 113.0071138 -4.3828125 123.625 C -8.02136628 126.82251696 -11.55852331 127.24339402 -16.2421875 127.1171875 C -22.56221195 126.12673591 -28.47771217 123.61590784 -34.43701172 121.35595703 C -45.41953503 117.19284772 -45.41953503 117.19284772 -56.8203125 118.5 C -58.54174524 119.55574101 -58.54174524 119.55574101 -59.3828125 121.625 C -60.044712 130.45340181 -60.044712 130.45340181 -57.3828125 138.625 C -49.00316599 142.38729027 -39.95819234 140.55229523 -31.3203125 138.6875 C -24.73479606 137.36164713 -18.21187752 136.18799521 -11.5078125 135.6875 C -10.29351563 135.59597656 -9.07921875 135.50445312 -7.828125 135.41015625 C -2.60238671 135.73602428 1.10986298 137.52876399 5.3671875 140.625 C 12.78821149 150.51969866 11.53550714 164.88050437 10.1484375 176.578125 C 8.78581291 184.07256022 6.61407897 189.83912566 1.6171875 195.625 C 1.16085937 196.18703125 0.70453125 196.7490625 0.234375 197.328125 C -10.49961703 208.45550941 -31.86709567 208.7007711 -46.296875 208.9609375 C -49.86742762 209.00153231 -53.43706125 209.00787297 -57.0078125 209 C -57.93491028 208.99945618 -58.86200806 208.99891235 -59.81719971 208.99835205 C -79.86792292 208.94421826 -100.60078301 208.68091323 -116.3203125 194.5 C -123.83053238 186.37753393 -126.17270134 176.34908852 -127.3828125 165.625 C -127.50527344 164.72394531 -127.62773438 163.82289063 -127.75390625 162.89453125 C -129.34818645 148.30981975 -127.8980209 133.27561078 -126.8203125 118.6875 C -126.33060119 111.39624276 -126.27405264 104.11908752 -126.2578125 96.8125 C -126.25322021 95.6788501 -126.24862793 94.5452002 -126.24389648 93.37719727 C -126.25305471 88.37423996 -126.34701041 83.44934071 -126.875 78.47265625 C -127.61744253 71.12354152 -127.60574339 63.76372486 -127.62304688 56.38378906 C -127.63274034 53.89353865 -127.663855 51.40412007 -127.6953125 48.9140625 C -127.80316717 32.49469158 -126.48092999 15.01108851 -114.56640625 2.59375 C -92.75477865 -17.07183195 -22.43453795 -18.61787382 0 0 Z" stroke-linecap="round"/>
</g>
		<g transform="matrix(1 0 0 1 -129.9262 -76.3449)">
<path style="stroke: none; stroke-width: 1; stroke-dasharray: none; stroke-linecap: butt; stroke-dashoffset: 0; stroke-linejoin: miter; stroke-miterlimit: 4; is-custom-font: none; font-file-url: none; fill: rgb(6,4,61); fill-rule: nonzero; opacity: 1;" transform=" translate(0.6762, -109.7801)" d="M 0 0 C 0.67975891 0.00221558 1.35951782 0.00443115 2.05987549 0.00671387 C 47.50038532 0.18011529 47.50038532 0.18011529 58.75 11.125 C 67.25716058 20.72985872 66.39043191 34.725455 65.90673828 46.80078125 C 65.24946648 56.54724154 63.43687042 64.6724731 56.25 71.5 C 47.29956123 75.65556086 37.60976325 72.56252844 28.41137695 70.56201172 C 19.72931077 68.75464756 7.78974829 66.47586379 -0.25 71.125 C -1.58600275 74.11135909 -1.44655307 77.38255291 -1.5 80.625 C -1.52578125 81.5634375 -1.5515625 82.501875 -1.578125 83.46875 C -1.18491757 86.65185779 -0.60597715 87.94909753 1.75 90.125 C 11.62585432 92.62852139 21.99480624 88.62659563 31.30932617 85.6159668 C 38.15059225 83.42687303 43.4671724 82.03072413 50.5 84.375 C 54.80087269 86.69085453 56.08965175 88.47412937 57.875 92.9375 C 61.13843547 104.82572922 60.86157308 117.87933133 56.5 129.4375 C 53.99173849 133.28947303 51.46383349 136.50577212 46.78125 137.57421875 C 38.78084873 137.99452969 31.38944244 134.47591817 24.03515625 131.74609375 C 13.16350291 127.80093053 13.16350291 127.80093053 1.75 128.125 C -0.14072734 129.16635679 -0.14072734 129.16635679 -1.25 131.125 C -1.7654686 134.15019132 -1.7654686 134.15019132 -1.6875 137.5 C -1.71650391 139.18222656 -1.71650391 139.18222656 -1.74609375 140.8984375 C -1.15532159 144.74078243 0.06199072 146.37191787 2.75 149.125 C 11.72846167 153.61423083 26.65197185 149.34633674 35.75 147.125 C 44.09067659 145.56653448 53.51466955 144.34644648 61.09765625 148.8125 C 66.38406366 153.01163213 67.47192178 158.96727169 68.4375 165.3125 C 69.94674843 178.89573585 68.60568937 194.59481935 60.25 205.875 C 49.37031694 217.37870478 31.14166397 218.62369606 16.27832031 219.06640625 C -40.5909116 220.38434905 -40.5909116 220.38434905 -57.5 205.08984375 C -69.84599597 192.22186634 -70.37588187 173.62690979 -70.32568359 156.69335938 C -70.20065558 150.79849024 -69.71125311 144.93888804 -69.25 139.0625 C -68.49939891 128.69940419 -68.05688375 118.39638722 -68.0625 108 C -68.06185547 106.88230225 -68.06121094 105.76460449 -68.06054688 104.61303711 C -68.09418881 99.53042874 -68.2666211 94.51759966 -68.74609375 89.45703125 C -69.41450452 82.09062526 -69.47220762 74.73718076 -69.49023438 67.34545898 C -69.49991498 64.95846348 -69.53103984 62.57234097 -69.5625 60.18554688 C -69.67909978 43.34734578 -68.45983192 25.68626681 -56.5 12.6875 C -41.4761878 -0.97566506 -19.03864609 -0.07064433 0 0 Z" stroke-linecap="round"/>
</g>
		<g transform="matrix(1 0 0 1 174.0628 -76.716)">
<path style="stroke: none; stroke-width: 1; stroke-dasharray: none; stroke-linecap: butt; stroke-dashoffset: 0; stroke-linejoin: miter; stroke-miterlimit: 4; is-custom-font: none; font-file-url: none; fill: rgb(6,4,61); fill-rule: nonzero; opacity: 1;" transform=" translate(22.6637, -104.034)" d="M 0 0 C 8.18750713 5.39700844 12.4987886 14.44189725 14.7734375 23.75 C 14.99 24.63429688 15.2065625 25.51859375 15.4296875 26.4296875 C 18.52126227 42.09095445 15.90916983 58.26890384 13.7109375 73.875 C 10.67358007 95.8627536 11.37460213 116.92285783 14.26611328 138.85009766 C 17.12041985 160.51424632 20.07360223 183.02100885 7.0234375 202.125 C 1.94301398 208.39390306 -4.4110322 211.98909348 -12.2265625 213.75 C -15.33643295 214.03977626 -18.41707178 214.08367237 -21.5390625 214.0625 C -22.79819458 214.05621582 -22.79819458 214.05621582 -24.08276367 214.04980469 C -32.91871596 213.88879286 -40.18276544 212.38503765 -47.2265625 206.75 C -47.80148437 206.29109375 -48.37640625 205.8321875 -48.96875 205.359375 C -58.94124936 196.54248716 -61.19712537 182.60911736 -62.14599609 169.90771484 C -62.42016225 159.16206303 -60.64199313 148.37678777 -59.2265625 137.75 C -56.44868036 116.45676176 -56.34557189 95.59377384 -59.2265625 74.3125 C -60.6843157 63.50855307 -61.65842209 52.91311296 -61.7265625 42 C -61.74460937 40.85345947 -61.76265625 39.70691895 -61.78125 38.52563477 C -61.69266472 25.96774854 -58.21773521 12.86609233 -49.5390625 3.5 C -36.65136526 -8.76137924 -14.76772616 -8.29065328 0 0 Z" stroke-linecap="round"/>
</g>
		<g transform="matrix(1 0 0 1 -103.0602 129.7295)">
<path style="stroke: none; stroke-width: 1; stroke-dasharray: none; stroke-linecap: butt; stroke-dashoffset: 0; stroke-linejoin: miter; stroke-miterlimit: 4; is-custom-font: none; font-file-url: none; fill: rgb(0,0,0); fill-rule: nonzero; opacity: 1;" transform=" translate(-16.7529, -28.2705)" d="M 0 0 C 2.99737764 0.0391666 4.69211775 0.06649361 7.09576416 1.90356445 C 8.69235686 3.92175669 10.01356113 5.98057722 11.32080078 8.19726562 C 11.81716034 8.9741272 12.3135199 9.75098877 12.82492065 10.5513916 C 14.39678082 13.02828478 15.91706274 15.53259479 17.43798828 18.04101562 C 18.49722964 19.72926247 19.55969741 21.41548958 20.62548828 23.09960938 C 23.23280609 27.22177071 25.76806087 31.37736142 28.31298828 35.54101562 C 28.64298828 23.99101562 28.97298828 12.44101562 29.31298828 0.54101562 C 32.61298828 0.54101562 35.91298828 0.54101562 39.31298828 0.54101562 C 39.31298828 19.02101563 39.31298828 37.50101562 39.31298828 56.54101562 C 29.31298828 56.54101562 29.31298828 56.54101562 26.60595703 54.18164062 C 25.91115234 53.06273437 25.21634766 51.94382812 24.50048828 50.79101562 C 23.91388428 49.88198486 23.91388428 49.88198486 23.31542969 48.95458984 C 22.44528964 47.59980632 21.59062637 46.23499788 20.74902344 44.86230469 C 18.61424423 41.41152593 16.37057822 38.03397027 14.13793945 34.64599609 C 11.50718781 30.62559361 8.9139259 26.5807698 6.31298828 22.54101562 C 5.98298828 33.76101563 5.65298828 44.98101562 5.31298828 56.54101562 C 1.68298828 56.54101562 -1.94701172 56.54101562 -5.68701172 56.54101562 C -5.71165128 48.72648349 -5.72984277 40.91197374 -5.74194336 33.09741211 C -5.74698555 30.43660081 -5.75381908 27.77579231 -5.76245117 25.11499023 C -5.7745218 21.29996047 -5.78024101 17.48496719 -5.78466797 13.66992188 C -5.78982925 12.4720253 -5.79499054 11.27412872 -5.80030823 10.03993225 C -5.80038376 8.93886642 -5.80045929 7.8378006 -5.80053711 6.70336914 C -5.80275772 5.72852066 -5.80497833 4.75367218 -5.80726624 3.74928284 C -5.5920242 -0.20326663 -3.54200777 0.23612006 0 0 Z" stroke-linecap="round"/>
</g>
		<g transform="matrix(1 0 0 1 213.3662 129.9738)">
<path style="stroke: none; stroke-width: 1; stroke-dasharray: none; stroke-linecap: butt; stroke-dashoffset: 0; stroke-linejoin: miter; stroke-miterlimit: 4; is-custom-font: none; font-file-url: none; fill: rgb(0,0,0); fill-rule: nonzero; opacity: 1;" transform=" translate(18.5713, -24.0987)" d="M 0 0 C 4.49923933 3.73107652 5.65354414 6.72280807 6.25 12.4375 C 6.4046875 14.7578125 6.4046875 14.7578125 6.5625 17.125 C 2.9325 17.125 -0.6975 17.125 -4.4375 17.125 C -4.705625 16.031875 -4.97375 14.93875 -5.25 13.8125 C -6.50858677 9.79443394 -6.50858677 9.79443394 -9.4375 7.125 C -15.40777616 5.13490795 -22.11994813 5.36580197 -28.0625 7.3125 C -30.98447352 9.54242716 -31.41568777 10.59676943 -32.4375 14.125 C -32.74742962 17.44117283 -32.76212226 20.73372868 -32.75 24.0625 C -32.76611328 24.94357422 -32.78222656 25.82464844 -32.79882812 26.73242188 C -32.80268643 31.88325772 -32.54680509 35.79635958 -29.4375 40.125 C -24.24969076 43.16069951 -18.25310579 42.60504324 -12.4375 42.125 C -8.7930398 41.39108618 -8.7930398 41.39108618 -6.4375 39.125 C -5.35026344 36.42289737 -4.91426066 34.03324002 -4.4375 31.125 C -9.3875 31.125 -14.3375 31.125 -19.4375 31.125 C -19.4375 28.155 -19.4375 25.185 -19.4375 22.125 C -10.8575 22.125 -2.2775 22.125 6.5625 22.125 C 7.01942185 39.18341558 7.01942185 39.18341558 3.5625 45.125 C -2.7153383 51.54715642 -9.60385551 53.15909065 -18.3125 53.4375 C -26.85343678 53.25440299 -33.58572911 51.51862535 -40.0625 45.8203125 C -44.91155349 39.84164996 -43.80534049 32.06150124 -43.8125 24.8125 C -43.83699219 23.51892578 -43.86148438 22.22535156 -43.88671875 20.89257812 C -43.90942362 13.49457463 -43.58376269 8.34067208 -39.4375 2.125 C -28.90860376 -8.10307063 -12.05130997 -6.5734418 0 0 Z" stroke-linecap="round"/>
</g>
		<g transform="matrix(1 0 0 1 410.5567 130.0573)">
<path style="stroke: none; stroke-width: 1; stroke-dasharray: none; stroke-linecap: butt; stroke-dashoffset: 0; stroke-linejoin: miter; stroke-miterlimit: 4; is-custom-font: none; font-file-url: none; fill: rgb(0,0,0); fill-rule: nonzero; opacity: 1;" transform=" translate(15.2129, -25.5769)" d="M 0 0 C 4.10841756 3.35335703 6.79208262 6.12381099 7.73046875 11.51953125 C 7.73046875 13.16953125 7.73046875 14.81953125 7.73046875 16.51953125 C 4.10046875 16.51953125 0.47046875 16.51953125 -3.26953125 16.51953125 C -3.47578125 15.59140625 -3.68203125 14.66328125 -3.89453125 13.70703125 C -5.01297223 10.3884386 -5.01297223 10.3884386 -7.76953125 8.64453125 C -13.43099078 6.8247764 -18.80481998 6.46322642 -24.33203125 8.83203125 C -26.53155048 10.4594351 -26.53155048 10.4594351 -27.26953125 13.51953125 C -25.031718 16.87625112 -24.71363765 16.95747055 -21.015625 17.765625 C -20.16033203 17.96349609 -19.30503906 18.16136719 -18.42382812 18.36523438 C -17.52728516 18.56052734 -16.63074219 18.75582031 -15.70703125 18.95703125 C 0.9792293 22.63072983 0.9792293 22.63072983 6.23046875 28.14453125 C 8.86087332 32.30933848 9.21429385 35.64476518 8.73046875 40.51953125 C 6.86787801 45.99773932 3.44069944 49.34653066 -1.26953125 52.51953125 C -9.23285053 56.02339173 -19.02544104 55.55772773 -27.20703125 52.95703125 C -32.92581866 50.62777331 -36.52295857 47.0126766 -39.26953125 41.51953125 C -39.40368597 38.84716915 -39.31271666 36.19702637 -39.26953125 33.51953125 C -35.96953125 33.51953125 -32.66953125 33.51953125 -29.26953125 33.51953125 C -28.89828125 34.61265625 -28.52703125 35.70578125 -28.14453125 36.83203125 C -26.91647919 39.61486482 -26.26452187 40.52341352 -23.76953125 42.45703125 C -17.61219356 44.32622305 -11.81048333 44.26429307 -5.64453125 42.45703125 C -2.38054228 39.79430341 -2.6923863 37.58363816 -2.26953125 33.51953125 C -3.27371094 33.2771875 -4.27789063 33.03484375 -5.3125 32.78515625 C -12.05705899 31.14107159 -18.78716138 29.44706245 -25.45703125 27.51953125 C -26.46121094 27.23078125 -27.46539063 26.94203125 -28.5 26.64453125 C -32.24845062 25.1218884 -35.14665029 23.01670586 -37.58203125 19.76953125 C -39.03529223 15.01340441 -38.76686864 10.92865386 -37.14453125 6.33203125 C -33.90339523 1.47032722 -30.94211917 -0.89506298 -25.51953125 -2.79296875 C -17.31908162 -4.43305868 -7.21328678 -4.70539706 0 0 Z" stroke-linecap="round"/>
</g>
		<g transform="matrix(1 0 0 1 -22.5176 129.9042)">
<path style="stroke: none; stroke-width: 1; stroke-dasharray: none; stroke-linecap: butt; stroke-dashoffset: 0; stroke-linejoin: miter; stroke-miterlimit: 4; is-custom-font: none; font-file-url: none; fill: rgb(0,0,0); fill-rule: nonzero; opacity: 1;" transform=" translate(17.3301, -25.0917)" d="M 0 0 C 3.2730574 2.66411649 5.79375981 5.40001961 7.6875 9.1875 C 7.94695808 13.66342022 7.95861148 18.14324262 7.98266602 22.62573242 C 7.99980297 24.84943377 8.04367649 27.07161801 8.08789062 29.29492188 C 8.09802486 30.72134328 8.10653868 32.14777729 8.11328125 33.57421875 C 8.12786377 34.86545654 8.14244629 36.15669434 8.1574707 37.48706055 C 7.53416467 42.39482653 5.80537511 46.30658993 2.01171875 49.67578125 C -7.81055775 54.62208278 -18.01449889 55.85415135 -28.75 53 C -34.32951693 51.05260367 -37.89983924 48.61065254 -40.9453125 43.38671875 C -43.28269004 37.63467863 -42.78487495 31.35311555 -42.75 25.25 C -42.76998047 24.01314453 -42.78996094 22.77628906 -42.81054688 21.50195312 C -42.80667484 14.25738039 -42.32701955 9.28870327 -38.3125 3.1875 C -28.65836994 -6.20681222 -11.38727251 -6.23077175 0 0 Z M -29.3125 9.1875 C -32.21468261 14.63692202 -32.77985493 19.07155129 -32.6875 25.1875 C -32.69910156 25.95578125 -32.71070313 26.7240625 -32.72265625 27.515625 C -32.69573036 32.79309857 -31.7955425 36.51388876 -29.3125 41.1875 C -24.62710112 45.00979909 -19.2170693 44.54506488 -13.43359375 44.5859375 C -9.15013151 44.03911253 -6.60105807 42.59619109 -3.69677734 39.42114258 C -1.06066084 35.16755705 -1.84329594 30.11801367 -1.875 25.25 C -1.85501953 24.16525391 -1.83503906 23.08050781 -1.81445312 21.96289062 C -1.80516528 15.75080781 -1.80516528 15.75080781 -4.02734375 10.05859375 C -10.64912227 4.63665886 -22.44305379 3.72717096 -29.3125 9.1875 Z" stroke-linecap="round"/>
</g>
		<g transform="matrix(1 0 0 1 131.4507 129.9121)">
<path style="stroke: none; stroke-width: 1; stroke-dasharray: none; stroke-linecap: butt; stroke-dashoffset: 0; stroke-linejoin: miter; stroke-miterlimit: 4; is-custom-font: none; font-file-url: none; fill: rgb(0,0,0); fill-rule: nonzero; opacity: 1;" transform=" translate(17.3618, -25.0996)" d="M 0 0 C 3.67662922 2.99260518 6.17909455 5.66228365 7.6875 10.1875 C 7.91507756 14.42354588 7.91578166 18.65989111 7.92773438 22.90161133 C 7.93741783 24.98234373 7.96844366 27.06207832 8 29.14257812 C 8.00653307 30.47655667 8.01178235 31.81054224 8.015625 33.14453125 C 8.02964355 34.95401245 8.02964355 34.95401245 8.04394531 36.80004883 C 7.49801425 41.98826359 5.67559111 45.17588291 2.0625 48.875 C -5.47426726 54.58746419 -14.15881808 54.98830814 -23.3125 54.1875 C -30.11875238 53.05154689 -35.87919005 50.65356966 -40.3125 45.1875 C -43.11520463 39.44844504 -42.68459903 33.64292664 -42.68310547 27.37744141 C -42.6874734 25.32499847 -42.72381786 23.2747187 -42.76171875 21.22265625 C -42.7982146 8.87489228 -42.7982146 8.87489228 -38.3125 3.1875 C -28.56069246 -6.06421485 -11.47504441 -6.27879789 0 0 Z M -30.94140625 11.11328125 C -33.01031742 15.75212196 -32.74663527 20.16757238 -32.6875 25.1875 C -32.69910156 26.17234375 -32.71070313 27.1571875 -32.72265625 28.171875 C -32.7688711 35.23226316 -32.7688711 35.23226316 -29.3125 41.1875 C -23.86458134 45.45270812 -17.91669372 44.79392282 -11.3125 44.1875 C -7.70752308 43.00655928 -6.09729192 42.11755388 -3.6875 39.26171875 C -1.61293277 34.62341076 -1.87834701 30.2089318 -1.9375 25.1875 C -1.92589844 24.20265625 -1.91429687 23.2178125 -1.90234375 22.203125 C -1.89942596 15.18145407 -1.89942596 15.18145407 -5.3125 9.1875 C -12.45977498 3.87285963 -25.02561019 4.11930653 -30.94140625 11.11328125 Z" stroke-linecap="round"/>
</g>
		<g transform="matrix(1 0 0 1 336 130)">
<path style="stroke: none; stroke-width: 1; stroke-dasharray: none; stroke-linecap: butt; stroke-dashoffset: 0; stroke-linejoin: miter; stroke-miterlimit: 4; is-custom-font: none; font-file-url: none; fill: rgb(0,0,0); fill-rule: nonzero; opacity: 1;" transform=" translate(-20.5, -28)" d="M 0 0 C 13.53 0 27.06 0 41 0 C 41 3.3 41 6.6 41 10 C 30.77 10 20.54 10 10 10 C 10 14.62 10 19.24 10 24 C 18.91 24 27.82 24 37 24 C 37 27.3 37 30.6 37 34 C 28.09 34 19.18 34 10 34 C 10 37.96 10 41.92 10 46 C 20.23 46 30.46 46 41 46 C 41 49.3 41 52.6 41 56 C 27.47 56 13.94 56 0 56 C 0 37.52 0 19.04 0 0 Z" stroke-linecap="round"/>
</g>
		<g transform="matrix(1 0 0 1 -340.5 130)">
<path style="stroke: none; stroke-width: 1; stroke-dasharray: none; stroke-linecap: butt; stroke-dashoffset: 0; stroke-linejoin: miter; stroke-miterlimit: 4; is-custom-font: none; font-file-url: none; fill: rgb(0,0,0); fill-rule: nonzero; opacity: 1;" transform=" translate(-20, -28)" d="M 0 0 C 13.2 0 26.4 0 40 0 C 40 3.3 40 6.6 40 10 C 30.1 10 20.2 10 10 10 C 10 14.62 10 19.24 10 24 C 18.91 24 27.82 24 37 24 C 37 27.3 37 30.6 37 34 C 28.09 34 19.18 34 10 34 C 10 37.96 10 41.92 10 46 C 19.9 46 29.8 46 40 46 C 40 49.3 40 52.6 40 56 C 26.8 56 13.6 56 0 56 C 0 37.52 0 19.04 0 0 Z" stroke-linecap="round"/>
</g>
		<g transform="matrix(1 0 0 1 -264.6552 129.865)">
<path style="stroke: none; stroke-width: 1; stroke-dasharray: none; stroke-linecap: butt; stroke-dashoffset: 0; stroke-linejoin: miter; stroke-miterlimit: 4; is-custom-font: none; font-file-url: none; fill: rgb(0,0,0); fill-rule: nonzero; opacity: 1;" transform=" translate(19.6553, -23.6776)" d="M 0 0 C 3.93397506 4.42572195 5.65148703 8.88236438 5.6875 14.8125 C 5.625625 15.8025 5.56375 16.7925 5.5 17.8125 C 1.87 17.8125 -1.76 17.8125 -5.5 17.8125 C -6.11848958 15.56640625 -6.73697917 13.3203125 -7.35546875 11.07421875 C -8.89645728 8.02905711 -10.40373774 7.19397679 -13.5 5.8125 C -18.88439604 5.07332315 -23.96128792 5.30843915 -29.125 7 C -32.04697352 9.22992716 -32.47818777 10.28426943 -33.5 13.8125 C -33.80992962 17.12867283 -33.82462226 20.42122868 -33.8125 23.75 C -33.82861328 24.63107422 -33.84472656 25.51214844 -33.86132812 26.41992188 C -33.86518643 31.57075772 -33.60930509 35.48385958 -30.5 39.8125 C -26.91149619 41.91589666 -23.6103954 42.10927145 -19.5 42.125 C -18.489375 42.14175781 -17.47875 42.15851563 -16.4375 42.17578125 C -13.00978503 41.75187501 -11.20236066 40.95363741 -8.5 38.8125 C -7.27828284 36.58392754 -7.27828284 36.58392754 -6.6875 34.125 C -6.295625 32.701875 -5.90375 31.27875 -5.5 29.8125 C -1.87 29.8125 1.76 29.8125 5.5 29.8125 C 5.84839188 35.38677011 5.23661374 39.86994666 2.5 44.8125 C -2.66349642 50.47975217 -8.92634544 52.37202931 -16.4609375 53.09765625 C -24.42961178 53.33323402 -32.37361493 52.44912697 -38.9375 47.5625 C -45.49217289 40.5282169 -44.98999308 33.0612898 -44.9375 23.875 C -44.95748047 22.63814453 -44.97746094 21.40128906 -44.99804688 20.12695312 C -44.99417484 12.88238039 -44.51451955 7.91370327 -40.5 1.8125 C -30.5667056 -7.85346352 -11.0501801 -8.09617155 0 0 Z" stroke-linecap="round"/>
</g>
		<g transform="matrix(1 0 0 1 -183 130)">
<path style="stroke: none; stroke-width: 1; stroke-dasharray: none; stroke-linecap: butt; stroke-dashoffset: 0; stroke-linejoin: miter; stroke-miterlimit: 4; is-custom-font: none; font-file-url: none; fill: rgb(0,0,0); fill-rule: nonzero; opacity: 1;" transform=" translate(-23.5, -28)" d="M 0 0 C 3.3 0 6.6 0 10 0 C 10 7.92 10 15.84 10 24 C 18.91 24 27.82 24 37 24 C 37 16.08 37 8.16 37 0 C 40.3 0 43.6 0 47 0 C 47 18.48 47 36.96 47 56 C 43.7 56 40.4 56 37 56 C 37 48.74 37 41.48 37 34 C 28.09 34 19.18 34 10 34 C 10 41.26 10 48.52 10 56 C 6.7 56 3.4 56 0 56 C 0 37.52 0 19.04 0 0 Z" stroke-linecap="round"/>
</g>
		<g transform="matrix(1 0 0 1 -414.5 130)">
<path style="stroke: none; stroke-width: 1; stroke-dasharray: none; stroke-linecap: butt; stroke-dashoffset: 0; stroke-linejoin: miter; stroke-miterlimit: 4; is-custom-font: none; font-file-url: none; fill: rgb(0,0,0); fill-rule: nonzero; opacity: 1;" transform=" translate(-24, -28)" d="M 0 0 C 15.84 0 31.68 0 48 0 C 48 3.3 48 6.6 48 10 C 41.73 10 35.46 10 29 10 C 29 25.18 29 40.36 29 56 C 25.7 56 22.4 56 19 56 C 19 40.82 19 25.64 19 10 C 12.73 10 6.46 10 0 10 C 0 6.7 0 3.4 0 0 Z" stroke-linecap="round"/>
</g>
		<g transform="matrix(1 0 0 1 56.4398 130)">
<path style="stroke: none; stroke-width: 1; stroke-dasharray: none; stroke-linecap: butt; stroke-dashoffset: 0; stroke-linejoin: miter; stroke-miterlimit: 4; is-custom-font: none; font-file-url: none; fill: rgb(0,0,0); fill-rule: nonzero; opacity: 1;" transform=" translate(-19.9399, -28)" d="M 0 0 C 3.3 0 6.6 0 10 0 C 10 15.18 10 30.36 10 46 C 20.23 46 30.46 46 41 46 C 41 49.3 41 52.6 41 56 C 27.14 56 13.28 56 -1 56 C -1.02290171 48.18542926 -1.04283103 40.370974 -1.05493164 32.55639648 C -1.05997383 29.89558519 -1.06680736 27.23477668 -1.07543945 24.57397461 C -1.08751009 20.75894484 -1.09322929 16.94395156 -1.09765625 13.12890625 C -1.10281754 11.93100967 -1.10797882 10.7331131 -1.11329651 9.49891663 C -1.11337204 8.3978508 -1.11344757 7.29678497 -1.11352539 6.16235352 C -1.115746 5.18750504 -1.11796661 4.21265656 -1.12025452 3.20826721 C -1 1 -1 1 0 0 Z" stroke-linecap="round"/>
</g>
		<g transform="matrix(1 0 0 1 276.5 130)">
<path style="stroke: none; stroke-width: 1; stroke-dasharray: none; stroke-linecap: butt; stroke-dashoffset: 0; stroke-linejoin: miter; stroke-miterlimit: 4; is-custom-font: none; font-file-url: none; fill: rgb(0,0,0); fill-rule: nonzero; opacity: 1;" transform=" translate(-5, -28)" d="M 0 0 C 3.3 0 6.6 0 10 0 C 10 18.48 10 36.96 10 56 C 6.7 56 3.4 56 0 56 C 0 37.52 0 19.04 0 0 Z" stroke-linecap="round"/>
</g>
</g>
</g>
</svg>


